<svg width="14" height="14" viewBox="0 0 14 14" fill="none" xmlns="http://www.w3.org/2000/svg">
<path fill-rule="evenodd" clip-rule="evenodd" d="M10.1204 5.65614C10.1204 7.96647 8.19256 9.83936 5.8144 9.83936C3.43624 9.83936 1.50836 7.96647 1.50836 5.65614C1.50836 3.3458 3.43624 1.47291 5.8144 1.47291C8.19256 1.47291 10.1204 3.3458 10.1204 5.65614ZM9.03053 9.96755C8.12724 10.6046 7.01598 10.9802 5.8144 10.9802C2.78765 10.9802 0.333984 8.59656 0.333984 5.65614C0.333984 2.71571 2.78765 0.332031 5.8144 0.332031C8.84115 0.332031 11.2948 2.71571 11.2948 5.65614C11.2948 7.01785 10.7686 8.26016 9.90294 9.20163L13.6673 12.8586L12.8369 13.6654L9.03053 9.96755Z" fill="#313131"/>
</svg>
