<svg width="18" height="14" viewBox="0 0 18 14" fill="none" xmlns="http://www.w3.org/2000/svg">
<path d="M0.75 0.5C0.551088 0.5 0.360322 0.579018 0.21967 0.71967C0.0790175 0.860323 0 1.05109 0 1.25C0 1.44891 0.0790175 1.63968 0.21967 1.78033C0.360322 1.92098 0.551088 2 0.75 2H17.25C17.4489 2 17.6397 1.92098 17.7803 1.78033C17.921 1.63968 18 1.44891 18 1.25C18 1.05109 17.921 0.860323 17.7803 0.71967C17.6397 0.579018 17.4489 0.5 17.25 0.5H0.75ZM0 7C0 6.80109 0.0790175 6.61032 0.21967 6.46967C0.360322 6.32902 0.551088 6.25 0.75 6.25H17.25C17.4489 6.25 17.6397 6.32902 17.7803 6.46967C17.921 6.61032 18 6.80109 18 7C18 7.19891 17.921 7.38968 17.7803 7.53033C17.6397 7.67098 17.4489 7.75 17.25 7.75H0.75C0.551088 7.75 0.360322 7.67098 0.21967 7.53033C0.0790175 7.38968 0 7.19891 0 7ZM0.75 12C0.551088 12 0.360322 12.079 0.21967 12.2197C0.0790175 12.3603 0 12.5511 0 12.75C0 12.9489 0.0790175 13.1397 0.21967 13.2803C0.360322 13.421 0.551088 13.5 0.75 13.5H17.25C17.4489 13.5 17.6397 13.421 17.7803 13.2803C17.921 13.1397 18 12.9489 18 12.75C18 12.5511 17.921 12.3603 17.7803 12.2197C17.6397 12.079 17.4489 12 17.25 12H0.75Z" fill="#35363F"/>
</svg>
