<svg width="80" height="26" viewBox="0 0 80 26" fill="none" xmlns="http://www.w3.org/2000/svg">
<path d="M1.48178 25.5124C0.94295 25.5124 0.56128 25.3553 0.336768 25.041C0.112256 24.7042 0 24.345 0 23.9633C0 23.6265 0.0673536 23.3122 0.202061 23.0204C0.359219 22.706 0.538828 22.4254 0.740889 22.1784L7.34154 13.052H1.54913C1.18991 13.052 0.875596 12.8836 0.606182 12.5469C0.359219 12.1877 0.235738 11.7611 0.235738 11.2672C0.235738 10.7957 0.359219 10.3916 0.606182 10.0548C0.853145 9.69558 1.16746 9.51597 1.54913 9.51597H11.4501C11.8318 9.51597 12.1573 9.63945 12.4267 9.88641C12.6961 10.1334 12.8309 10.5038 12.8309 10.9977C12.8309 11.6039 12.6063 12.2101 12.1573 12.8163L5.52299 21.9427H12.09C12.4492 21.9427 12.7523 22.1223 12.9992 22.4815C13.2687 22.8408 13.4034 23.2673 13.4034 23.7613C13.4034 24.2327 13.2799 24.6481 13.0329 25.0073C12.8084 25.3441 12.4941 25.5124 12.09 25.5124H1.48178Z" fill="#1F2024"/>
<path d="M22.112 25.8155C20.7649 25.8155 19.5301 25.5012 18.4075 24.8726C17.3074 24.2215 16.4206 23.3796 15.7471 22.3468C15.096 21.2916 14.7704 20.1691 14.7704 18.9791V10.8967C14.7704 10.56 14.9837 10.2456 15.4103 9.95377C15.8593 9.6619 16.3757 9.51597 16.9594 9.51597C17.5431 9.51597 18.0483 9.6619 18.4749 9.95377C18.9014 10.2456 19.1147 10.56 19.1147 10.8967V18.9791C19.1147 19.4955 19.2494 19.9782 19.5189 20.4272C19.7883 20.8763 20.1475 21.2579 20.5965 21.5723C21.0455 21.8641 21.5395 22.0101 22.0783 22.0101C22.6396 22.0101 23.1335 21.8641 23.5601 21.5723C24.0091 21.2804 24.3683 20.8987 24.6377 20.4272C24.9071 19.9558 25.0418 19.4731 25.0418 18.9791V10.863C25.0418 10.5038 25.2551 10.1895 25.6817 9.92009C26.1307 9.65068 26.6359 9.51597 27.1972 9.51597C27.8482 9.51597 28.3759 9.65068 28.78 9.92009C29.1841 10.1895 29.3862 10.5038 29.3862 10.863V18.9791C29.3862 20.1915 29.0494 21.3253 28.3759 22.3805C27.7248 23.4133 26.8379 24.244 25.7154 24.8726C24.6153 25.5012 23.4141 25.8155 22.112 25.8155Z" fill="#1F2024"/>
<path d="M38.0887 25.5124C36.0681 25.5124 34.519 25.0746 33.4413 24.1991C32.3861 23.3235 31.8585 21.9315 31.8585 20.0231V3.72356C31.8585 3.31944 32.0942 2.9939 32.5657 2.74693C33.0372 2.49997 33.5199 2.37649 34.0138 2.37649C34.5526 2.37649 35.0466 2.49997 35.4956 2.74693C35.9671 2.9939 36.2028 3.31944 36.2028 3.72356V9.51597H40.1767C40.5359 9.51597 40.8053 9.68435 40.9849 10.0211C41.187 10.3354 41.288 10.6947 41.288 11.0988C41.288 11.5029 41.187 11.8733 40.9849 12.2101C40.8053 12.5244 40.5359 12.6816 40.1767 12.6816H36.2028V20.0231C36.2028 20.6967 36.3375 21.1681 36.6069 21.4376C36.8988 21.707 37.3927 21.8417 38.0887 21.8417H39.4021C40.0307 21.8417 40.491 22.0325 40.7828 22.4142C41.0972 22.7958 41.2543 23.2112 41.2543 23.6602C41.2543 24.1317 41.0972 24.5583 40.7828 24.9399C40.491 25.3216 40.0307 25.5124 39.4021 25.5124H38.0887Z" fill="#1F2024"/>
<path d="M49.2994 25.8155C47.9972 25.8155 46.7961 25.5012 45.696 24.8726C44.5959 24.2215 43.709 23.3684 43.0355 22.3132C42.362 21.2579 42.0252 20.1242 42.0252 18.9118V16.1503C42.0252 14.9379 42.3507 13.8154 43.0018 12.7826C43.6529 11.7274 44.5285 10.8855 45.6286 10.2569C46.7512 9.62823 47.9748 9.31391 49.2994 9.31391C50.624 9.31391 51.8364 9.62823 52.9365 10.2569C54.059 10.863 54.9459 11.6825 55.597 12.7153C56.2705 13.748 56.6073 14.893 56.6073 16.1503V18.9118C56.6073 20.1017 56.2705 21.2243 55.597 22.2795C54.9234 23.3347 54.0254 24.1878 52.9028 24.8389C51.8027 25.49 50.6016 25.8155 49.2994 25.8155ZM49.2994 22.0101C49.8382 22.0101 50.3321 21.8641 50.7812 21.5723C51.2302 21.2804 51.5894 20.8987 51.8588 20.4272C52.1282 19.9333 52.263 19.4282 52.263 18.9118V16.1503C52.263 15.6339 52.1282 15.1512 51.8588 14.7022C51.5894 14.2532 51.2302 13.8827 50.7812 13.5909C50.3546 13.2765 49.8607 13.1194 49.2994 13.1194C48.7606 13.1194 48.2666 13.2653 47.8176 13.5572C47.3686 13.849 47.0094 14.2307 46.74 14.7022C46.493 15.1512 46.3695 15.6339 46.3695 16.1503V18.9118C46.3695 19.4282 46.493 19.9333 46.74 20.4272C47.0094 20.8987 47.3686 21.2804 47.8176 21.5723C48.2666 21.8641 48.7606 22.0101 49.2994 22.0101Z" fill="#1F2024"/>
<path d="M67.4872 25.8155C66.432 25.8155 65.4779 25.5461 64.6247 25.0073C63.7716 24.4685 63.1654 23.8511 62.8062 23.1551V24.098C62.8062 24.4572 62.6153 24.7828 62.2337 25.0746C61.8744 25.3665 61.4142 25.5124 60.8529 25.5124C60.2467 25.5124 59.7416 25.3665 59.3374 25.0746C58.9333 24.7828 58.7313 24.4572 58.7313 24.098V1.53457C58.7313 1.13045 58.9333 0.804908 59.3374 0.557944C59.7416 0.310981 60.2467 0.1875 60.8529 0.1875C61.4815 0.1875 62.0091 0.310981 62.4357 0.557944C62.8623 0.804908 63.0756 1.13045 63.0756 1.53457V11.8733C63.4348 11.2223 63.9848 10.6385 64.7257 10.1222C65.4666 9.58332 66.3647 9.31391 67.4199 9.31391C68.52 9.31391 69.5191 9.62823 70.4171 10.2569C71.3152 10.863 72.0336 11.6825 72.5724 12.7153C73.1113 13.748 73.3807 14.893 73.3807 16.1503V18.9118C73.3807 20.1017 73.1113 21.2243 72.5724 22.2795C72.0336 23.3347 71.3152 24.1878 70.4171 24.8389C69.5415 25.49 68.5649 25.8155 67.4872 25.8155ZM66.1065 22.0101C66.6453 22.0101 67.1392 21.8641 67.5883 21.5723C68.0373 21.2579 68.3853 20.865 68.6322 20.3936C68.9016 19.9221 69.0364 19.4282 69.0364 18.9118V16.1503C69.0364 15.6339 68.9016 15.1512 68.6322 14.7022C68.3853 14.2532 68.0373 13.8827 67.5883 13.5909C67.1392 13.2765 66.6341 13.1194 66.0728 13.1194C65.6013 13.1194 65.1299 13.2429 64.6584 13.4898C64.2094 13.7368 63.8277 14.0848 63.5134 14.5338C63.2215 14.9828 63.0756 15.5217 63.0756 16.1503V19.518C63.0756 19.7425 63.2103 20.0568 63.4797 20.4609C63.7491 20.8426 64.1083 21.2018 64.5574 21.5386C65.0288 21.8529 65.5452 22.0101 66.1065 22.0101Z" fill="#1F2024"/>
<path d="M77.6426 5.94623C76.9915 5.94623 76.4303 5.73294 75.9588 5.30637C75.4873 4.85735 75.2516 4.36342 75.2516 3.82459C75.2516 3.24086 75.4873 2.74694 75.9588 2.34281C76.4303 1.91624 76.9915 1.70296 77.6426 1.70296C78.3162 1.70296 78.8774 1.91624 79.3265 2.34281C79.7755 2.74694 80 3.24086 80 3.82459C80 4.36342 79.7755 4.85735 79.3265 5.30637C78.8774 5.73294 78.3162 5.94623 77.6426 5.94623ZM77.6426 25.5124C77.014 25.5124 76.4976 25.3665 76.0935 25.0746C75.6894 24.7828 75.4873 24.4572 75.4873 24.098V10.863C75.4873 10.4589 75.6894 10.1334 76.0935 9.88641C76.4976 9.63945 77.014 9.51597 77.6426 9.51597C78.2488 9.51597 78.7652 9.63945 79.1918 9.88641C79.6183 10.1334 79.8316 10.4589 79.8316 10.863V24.098C79.8316 24.4572 79.6183 24.7828 79.1918 25.0746C78.7652 25.3665 78.2488 25.5124 77.6426 25.5124Z" fill="#1F2024"/>
</svg>
